<svg version="1" xmlns="http://www.w3.org/2000/svg" width="848" height="638.667" viewBox="0 0 636.000000 479.000000"><g fill="#FF9800"><path d="M32.2 4.9C44.1 15.8 59.4 27.9 69 34c4.7 3 12.8 8.5 18.1 12.2 9.8 6.9 44.4 25.5 61.2 32.9 22.4 10 26.4 11.7 29.7 13 1.9.7 9.8 4.2 17.5 7.7 13.5 6.1 23 9.9 34.3 13.8 6 2.1 6.8 4.5 3 8.8-2 2.2-3.2 2.5-8.8 2.7-3.6.1-8.5-.5-11-1.2-3.4-1-13.3-1.3-39-1.3-32.9.1-52.1 1.2-61.3 3.5-2.3.6-6.4 1.5-9.2 2-2.7.6-9 2.3-14 3.9-29 9.2-34.6 11.1-40.5 13.5-3.6 1.4-7.4 3.1-8.5 3.8-1.1.6-5 2.7-8.6 4.7-13.6 7.2-27.8 16.2-30.4 19-1.7 1.9-1.7 2 .8 2.9 1.4.5 2.8 1.4 3.1 2 .9 1.4 15.4 5.6 26.1 7.5 18.8 3.3 68 3.7 86.5.7 3.6-.6 8.9-1.1 11.7-1.1 6.3 0 17.9-1.7 24.8-3.5 2.8-.7 8.8-2.1 13.5-3 17-3.3 21.7-4.6 30.2-8.7 7.3-3.4 9.4-4 12.9-3.5 5.4.7 7.1 2.3 4.5 4.3-1.1.8-2.9 1.4-4.1 1.4-3.1 0-15.1 6-24.1 12.1-7.2 4.9-23.9 20.9-21.8 20.9.5 0 4.2-2.5 8.2-5.5 6.2-4.7 7-5 5.2-2.4-1.2 1.6-2 3.2-1.8 3.5.3.2 4.5-2.1 9.4-5.3 16.6-10.6 28.5-15.3 30.5-12.2 1.5 2.4 1 6.2-3.1 22.5-4.3 17.1-10.3 35.6-15.2 46.9-1.7 3.8-4 10.1-5.3 14-1.2 3.8-3.4 9.5-4.8 12.5-12.9 27.4-17.8 41.3-19.7 54.6-.5 3.8-1.4 9.8-1.9 13.4-1.4 8.5-1.4 33.2 0 46.2 1.8 18.2 8.8 35.8 18.8 47.8 13.5 16.3 17.1 19.6 27.4 25.8 6.8 4.1 11.3 6.2 13.4 6.2 5.9 0 18.3-11.9 23.8-23 1.5-3 4.2-7.8 5.9-10.5 5.8-8.8 17.2-29.7 21-38.5 6.2-14.1 7-15.4 9.9-16.8 14.7-7.1 8.3 24.5-16.9 82.6-2 4.7-1.7 7.5.9 10 2 1.9 3.5 2.2 9.9 2.2h7.6l4.9-5.4c5.6-6.1 11.4-16.6 13.7-24.6.8-3 3.5-12.3 6-20.5 2.4-8.3 5.4-18.8 6.6-23.5 1.2-4.7 2.6-9.9 3.2-11.7 1.4-4.9 12.1-14.1 22.7-19.6 16.9-8.7 27-16.5 36.1-27.8 5.8-7 8.6-12.7 11.9-23.7 2.2-7.4 4-9.4 6.6-7.2 1.9 1.6 9.2 24.2 10 31 .3 3 1 7.7 1.6 10.5.5 2.7 1 7.6 1.2 10.9.3 4.8.8 6.2 2.8 7.8 3.1 2.4 9.4 1.8 19.8-2.2 4.2-1.6 9.5-3.4 11.8-4 6.2-1.6 9.7-5.1 15.8-16 3-5.4 7-12.1 8.7-14.8 1.8-2.8 5.3-8.5 7.7-12.7 4.6-8 8-11.2 10.5-9.8 2.4 1.3 14.8 15.4 18.9 21.5 5.7 8.3 7.1 8.6 17.5 4.2 8.1-3.4 19.3-9.3 35.2-18.4 3.6-2.1 11.9-6.5 18.5-9.9 12.5-6.5 16.5-9.4 16.5-11.9 0-5.5-27.9-47-45.2-67.3-10.1-11.9-28.5-31.4-36.1-38.3-10.3-9.3-37.6-30.9-45.5-35.9-3.2-2-7.8-4.7-10.3-5.8-2.4-1.2-5.3-2.9-6.4-3.9-2-1.8-25.1-13.7-35.9-18.4-7.7-3.4-25.9-8.6-46.6-13.2-14.5-3.2-18.4-3.7-32.5-4-8.8-.2-20.3.1-25.5.6-11.9 1.1-14 .7-13.9-2.9 0-2.6 0-2.6.9-.3.9 2.1 1.1 2.2 3.7.8 1.8-.9 9.2-1.8 20.5-2.5 15.1-1 19.6-.9 29.9.4 14 1.8 37.7 7 52.9 11.5 13.6 4.1 43.5 17.8 56 25.7 3 1.9 10.1 6.3 15.7 9.8 15.2 9.4 43.4 32.6 55.6 45.8 24.1 25.9 41.6 48.7 57.4 75 6.6 11 9.7 14.7 12.2 14.7.9 0 7-3.4 13.5-7.5s13.4-8 15.2-8.7c3.4-1.2 3.4-1.3 3.4-7.4 0-5.3-.5-7.2-3.4-12.1-1.9-3.2-5-7.3-7-9.1-2-1.8-3.6-3.7-3.6-4.2s-1.5-.1-3.2.9c-1.8 1.1-7.6 3.3-12.8 4.9-5.2 1.7-11.2 3.8-13.2 4.6-4.6 2-5.4 2-6.2.1-.7-1.9 2-4.5 4.8-4.5 1.3 0 3.1-1 4.2-2.1 2.3-2.5 11.8-9.8 17.3-13.4 2.3-1.4 4.3-3.5 4.6-4.8 1.4-5.5-7.4-21-25.1-44.2-4.2-5.5-9.7-13.2-12.2-17-2.5-3.9-8.7-11.5-13.7-16.9-4.9-5.4-11.2-12.4-13.8-15.5-5.4-6.4-21.2-20.9-27.3-25.1-6.3-4.4-8.9-4.8-10.8-1.3-2.2 4.2-25.8 28.1-28.1 28.5-2.2.3-2.4-1.6-1-8.2l.8-3.5-2.3 2-2.3 2 1.7-3.2c.9-1.8 1.6-4.2 1.6-5.5-.1-2.3-.1-2.3-2.3.4-1.2 1.5-3 3.8-4 5.3-2.4 3.4-6.3 5.3-7.8 3.8-.8-.8-.4-2.7 1.5-6.8 5.7-12.6 10-32.1 6.5-30-.5.4-.9-1-.9-2.9 0-4.1-1.2-4.7-2.8-1.2-.6 1.3-3.4 5.7-6.4 9.9-2.9 4.1-6.1 8.9-7 10.6-.9 1.7-2.4 3.1-3.3 3.1-2.2 0-1.9-4.8.5-8.7 1-1.8 3.3-7.9 5.1-13.7l3.2-10.4-2.2-3c-2.8-4.1-9.9-8.3-22.9-13.7-5.9-2.5-12-5.2-13.6-6-1.6-.9-6.6-1.8-11-2.1-5.7-.4-8.9-1.2-10.8-2.5-2.4-1.7-7.3-2.9-22.9-5.5-5.5-.9-8.8 2.4-9.9 10.1-1.8 12.2-6.8 29.6-9.5 33.1-1.3 1.7-1.4-.4-.9-18.6l.6-20.5-3.6-3.9c-4-4.3-4.4-4.3-20.1-1.2-20.4 4.1-23.7 3.8-27.7-3.1l-2.1-3.5-1.3 2.3c-.7 1.4-1.4 5.7-1.4 9.9-.1 10.2-2.3 21-4.6 22.7-3.1 2.2-5 1.5-8.3-3.5-6.2-9.3-10.3-14.7-11.3-15.1-.7-.2-.8.3-.4 1.5 4.8 12 10.1 31.1 12 42.7 1.5 8.7 1.5 10 .1 12.6-2.2 4.4-3.2 4.5-4.4.8-.7-1.9-2.3-4.5-3.8-5.8-1.4-1.3-4.3-4.8-6.5-7.8-6.8-9.1-31.7-33.9-41.1-40.9C214 41 200.2 33.6 170.5 23.3c-17.8-6.3-31.5-9.8-53-13.8-22.8-4.2-25.9-4.7-29-4.6-1.6.1-7.3-.5-12.5-1.4C68.3 2.3 37.3 0 28.9 0c-1.6 0-.9 1 3.3 4.9zm220.4 223c6.6 3 9.3 12.6 5.9 20.8-2.1 5-4.2 7.2-9 9.4-5 2.3-10.2 2.4-15.6.2-6.9-2.7-9.9-12.6-6.4-21 2.1-5 4.2-7.2 9-9.4 5.1-2.4 10.9-2.4 16.1 0zm-58.2 170.7c4.7 2.3 7.2 7.4 9.6 19.3 1.1 5.7 2 10.4 2 10.6 0 1.4-3.6 3.5-6 3.5-3.4 0-6.8-3.7-10.9-11.9-8.8-17.5-6.5-27.1 5.3-21.5zM594.9 309.8c-2.4 1.6-10 5.6-16.9 9.1-6.9 3.4-12.9 6.6-13.5 7.1-2.4 1.9-28.6 15.5-36.9 19.1-5 2.2-9.5 4.4-10 4.9-1.8 1.8 7.1 21.6 11 24.4 5.2 3.7 16.8-.1 42.5-13.8 29.1-15.5 40.8-23.7 42.9-30.1 1-3 .8-4.2-1.6-9.7-3.6-8.1-8.1-13.8-10.9-13.8-1.1 0-4.1 1.3-6.6 2.8z"/><path d="M482.1 327.5c-1.7 3-3.1 5.8-3.1 6.1 0 .4-2.2 4.1-4.9 8.3-2.7 4.2-7.4 12.6-10.4 18.6l-5.6 11 1 8.8c.9 8.6 3.8 16.7 7.5 20.8.8.8 1.4 2 1.4 2.6 0 .6 1.5 2.1 3.3 3.2 3 1.9 4.9 2 21.3 2 9.8 0 20.3.4 23.3 1 8.1 1.7 14.8 1.4 15.9-.5 1.2-2.1 0-7.1-3.6-15.9-1.6-3.9-4.8-11.7-7.1-17.5-6.6-16.4-10.7-25.4-13.4-29.6-2.9-4.6-20.5-24.4-21.7-24.4-.4 0-2.2 2.5-3.9 5.5zM438.5 375.6c-4.9 1.9-10.7 3.8-16 5.3-2.2.6-5 1.9-6.2 2.9-2.1 1.5-2.2 2.1-1.3 6.7 2 10.9 5.4 18.6 10.4 23.3 5.3 5 4.5 4.9 18.6 1.2 9.5-2.5 15.8-5.4 16.7-7.6.3-.8-.4-3.6-1.6-6.3-1.1-2.6-2.9-8.8-4-13.6-1.1-4.8-2.4-9.1-2.8-9.4-.5-.3-1.2-1.4-1.6-2.4-.8-2.2-6.6-2.2-12.2-.1zM367.4 377.4c-2.1 5.4 3 32.2 8.7 45.8 1.7 4 3.9 9.5 4.9 12.3 3.1 8.6 10.4 20.7 14 23.2 3.2 2.2 5.9-.1 10.9-9.4 2.3-4.3 6.4-11.6 9.1-16.3 2.8-4.7 5-9.3 5-10.2 0-1-1.7-7.1-3.9-13.5-2.1-6.5-4.4-13.6-5-15.8-2.4-8.3-4.1-9.4-20.7-12.6-8.2-1.5-16-2.8-17.4-2.9-1.5 0-3.1-.5-3.8-1.2-.9-.9-1.3-.7-1.8.6z"/></g></svg>